# Blender v2.79 (sub 0) OBJ File: 'untitled.blend'
# www.blender.org
mtllib axis.mtl
o cone_y
v 0.000000 1.000000 -1.000000
v 0.000000 3.000000 0.000000
v 0.195090 1.000000 -0.980785
v 0.382683 1.000000 -0.923880
v 0.555570 1.000000 -0.831470
v 0.707107 1.000000 -0.707107
v 0.831470 1.000000 -0.555570
v 0.923880 1.000000 -0.382683
v 0.980785 1.000000 -0.195090
v 1.000000 1.000000 -0.000000
v 0.980785 1.000000 0.195090
v 0.923880 1.000000 0.382683
v 0.831470 1.000000 0.555570
v 0.707107 1.000000 0.707107
v 0.555570 1.000000 0.831470
v 0.382683 1.000000 0.923880
v 0.195090 1.000000 0.980785
v -0.000000 1.000000 1.000000
v -0.195091 1.000000 0.980785
v -0.382684 1.000000 0.923879
v -0.555571 1.000000 0.831469
v -0.707107 1.000000 0.707106
v -0.831470 1.000000 0.555570
v -0.923880 1.000000 0.382683
v -0.980785 1.000000 0.195089
v -1.000000 1.000000 -0.000001
v -0.980785 1.000000 -0.195091
v -0.923879 1.000000 -0.382684
v -0.831469 1.000000 -0.555571
v -0.707106 1.000000 -0.707108
v -0.555569 1.000000 -0.831470
v -0.382682 1.000000 -0.923880
v -0.195089 1.000000 -0.980786
vn 0.0878 0.4455 -0.8910
vn 0.2599 0.4455 -0.8567
vn 0.4220 0.4455 -0.7896
vn 0.5680 0.4455 -0.6921
vn 0.6921 0.4455 -0.5680
vn 0.7896 0.4455 -0.4220
vn 0.8567 0.4455 -0.2599
vn 0.8910 0.4455 -0.0878
vn 0.8910 0.4455 0.0878
vn 0.8567 0.4455 0.2599
vn 0.7896 0.4455 0.4220
vn 0.6921 0.4455 0.5680
vn 0.5680 0.4455 0.6921
vn 0.4220 0.4455 0.7896
vn 0.2599 0.4455 0.8567
vn 0.0878 0.4455 0.8910
vn -0.0878 0.4455 0.8910
vn -0.2599 0.4455 0.8567
vn -0.4220 0.4455 0.7896
vn -0.5680 0.4455 0.6921
vn -0.6921 0.4455 0.5680
vn -0.7896 0.4455 0.4220
vn -0.8567 0.4455 0.2599
vn -0.8910 0.4455 0.0878
vn -0.8910 0.4455 -0.0878
vn -0.8567 0.4455 -0.2599
vn -0.7896 0.4455 -0.4220
vn -0.6921 0.4455 -0.5680
vn -0.5680 0.4455 -0.6921
vn -0.4220 0.4455 -0.7896
vn -0.2599 0.4455 -0.8567
vn -0.0878 0.4455 -0.8910
vn 0.0000 -1.0000 0.0000
usemtl mat_y
s off
f 1//1 2//1 3//1
f 3//2 2//2 4//2
f 4//3 2//3 5//3
f 5//4 2//4 6//4
f 6//5 2//5 7//5
f 7//6 2//6 8//6
f 8//7 2//7 9//7
f 9//8 2//8 10//8
f 10//9 2//9 11//9
f 11//10 2//10 12//10
f 12//11 2//11 13//11
f 13//12 2//12 14//12
f 14//13 2//13 15//13
f 15//14 2//14 16//14
f 16//15 2//15 17//15
f 17//16 2//16 18//16
f 18//17 2//17 19//17
f 19//18 2//18 20//18
f 20//19 2//19 21//19
f 21//20 2//20 22//20
f 22//21 2//21 23//21
f 23//22 2//22 24//22
f 24//23 2//23 25//23
f 25//24 2//24 26//24
f 26//25 2//25 27//25
f 27//26 2//26 28//26
f 28//27 2//27 29//27
f 29//28 2//28 30//28
f 30//29 2//29 31//29
f 31//30 2//30 32//30
f 32//31 2//31 33//31
f 33//32 2//32 1//32
f 17//33 25//33 9//33
f 33//33 1//33 3//33
f 3//33 4//33 5//33
f 5//33 6//33 7//33
f 7//33 8//33 5//33
f 9//33 10//33 11//33
f 11//33 12//33 9//33
f 13//33 14//33 17//33
f 15//33 16//33 17//33
f 17//33 18//33 19//33
f 19//33 20//33 17//33
f 21//33 22//33 23//33
f 23//33 24//33 25//33
f 25//33 26//33 27//33
f 27//33 28//33 29//33
f 29//33 30//33 33//33
f 31//33 32//33 33//33
f 33//33 3//33 9//33
f 5//33 8//33 9//33
f 9//33 12//33 13//33
f 14//33 15//33 17//33
f 17//33 20//33 21//33
f 21//33 23//33 25//33
f 25//33 27//33 33//33
f 30//33 31//33 33//33
f 3//33 5//33 9//33
f 9//33 13//33 17//33
f 17//33 21//33 25//33
f 27//33 29//33 33//33
f 33//33 9//33 25//33
o cone_z
v 0.000000 1.000000 1.000000
v 0.000000 -0.000000 3.000000
v 0.195090 0.980785 1.000000
v 0.382683 0.923880 1.000000
v 0.555570 0.831470 1.000000
v 0.707107 0.707107 1.000000
v 0.831470 0.555570 1.000000
v 0.923880 0.382683 1.000000
v 0.980785 0.195090 1.000000
v 1.000000 0.000000 1.000000
v 0.980785 -0.195090 1.000000
v 0.923880 -0.382683 1.000000
v 0.831470 -0.555570 1.000000
v 0.707107 -0.707107 1.000000
v 0.555570 -0.831470 1.000000
v 0.382683 -0.923880 1.000000
v 0.195090 -0.980785 1.000000
v -0.000000 -1.000000 1.000000
v -0.195091 -0.980785 1.000000
v -0.382684 -0.923879 1.000000
v -0.555571 -0.831469 1.000000
v -0.707107 -0.707106 1.000000
v -0.831470 -0.555570 1.000000
v -0.923880 -0.382683 1.000000
v -0.980785 -0.195089 1.000000
v -1.000000 0.000001 1.000000
v -0.980785 0.195091 1.000000
v -0.923879 0.382684 1.000000
v -0.831469 0.555571 1.000000
v -0.707106 0.707108 1.000000
v -0.555569 0.831470 1.000000
v -0.382682 0.923880 1.000000
v -0.195089 0.980786 1.000000
vn 0.0878 0.8910 0.4455
vn 0.2599 0.8567 0.4455
vn 0.4220 0.7896 0.4455
vn 0.5680 0.6921 0.4455
vn 0.6921 0.5680 0.4455
vn 0.7896 0.4220 0.4455
vn 0.8567 0.2599 0.4455
vn 0.8910 0.0878 0.4455
vn 0.8910 -0.0878 0.4455
vn 0.8567 -0.2599 0.4455
vn 0.7896 -0.4220 0.4455
vn 0.6921 -0.5680 0.4455
vn 0.5680 -0.6921 0.4455
vn 0.4220 -0.7896 0.4455
vn 0.2599 -0.8567 0.4455
vn 0.0878 -0.8910 0.4455
vn -0.0878 -0.8910 0.4455
vn -0.2599 -0.8567 0.4455
vn -0.4220 -0.7896 0.4455
vn -0.5680 -0.6921 0.4455
vn -0.6921 -0.5680 0.4455
vn -0.7896 -0.4220 0.4455
vn -0.8567 -0.2599 0.4455
vn -0.8910 -0.0878 0.4455
vn -0.8910 0.0878 0.4455
vn -0.8567 0.2599 0.4455
vn -0.7896 0.4220 0.4455
vn -0.6921 0.5680 0.4455
vn -0.5680 0.6921 0.4455
vn -0.4220 0.7896 0.4455
vn -0.2599 0.8567 0.4455
vn -0.0878 0.8910 0.4455
vn 0.0000 0.0000 -1.0000
usemtl mat_z
s off
f 34//34 35//34 36//34
f 36//35 35//35 37//35
f 37//36 35//36 38//36
f 38//37 35//37 39//37
f 39//38 35//38 40//38
f 40//39 35//39 41//39
f 41//40 35//40 42//40
f 42//41 35//41 43//41
f 43//42 35//42 44//42
f 44//43 35//43 45//43
f 45//44 35//44 46//44
f 46//45 35//45 47//45
f 47//46 35//46 48//46
f 48//47 35//47 49//47
f 49//48 35//48 50//48
f 50//49 35//49 51//49
f 51//50 35//50 52//50
f 52//51 35//51 53//51
f 53//52 35//52 54//52
f 54//53 35//53 55//53
f 55//54 35//54 56//54
f 56//55 35//55 57//55
f 57//56 35//56 58//56
f 58//57 35//57 59//57
f 59//58 35//58 60//58
f 60//59 35//59 61//59
f 61//60 35//60 62//60
f 62//61 35//61 63//61
f 63//62 35//62 64//62
f 64//63 35//63 65//63
f 65//64 35//64 66//64
f 66//65 35//65 34//65
f 50//66 58//66 42//66
f 66//66 34//66 36//66
f 36//66 37//66 38//66
f 38//66 39//66 40//66
f 40//66 41//66 38//66
f 42//66 43//66 44//66
f 44//66 45//66 42//66
f 46//66 47//66 50//66
f 48//66 49//66 50//66
f 50//66 51//66 52//66
f 52//66 53//66 54//66
f 54//66 55//66 56//66
f 56//66 57//66 58//66
f 58//66 59//66 60//66
f 60//66 61//66 62//66
f 62//66 63//66 66//66
f 64//66 65//66 66//66
f 66//66 36//66 42//66
f 38//66 41//66 42//66
f 42//66 45//66 46//66
f 47//66 48//66 50//66
f 50//66 52//66 58//66
f 54//66 56//66 58//66
f 58//66 60//66 66//66
f 63//66 64//66 66//66
f 36//66 38//66 42//66
f 42//66 46//66 50//66
f 52//66 54//66 58//66
f 60//66 62//66 66//66
f 66//66 42//66 58//66
o cone_x
v 1.000000 0.000000 -1.000000
v 3.000000 -0.000000 0.000000
v 1.000000 -0.195090 -0.980785
v 1.000000 -0.382683 -0.923880
v 1.000000 -0.555570 -0.831470
v 1.000000 -0.707107 -0.707107
v 1.000000 -0.831470 -0.555570
v 1.000000 -0.923879 -0.382683
v 1.000000 -0.980785 -0.195090
v 1.000000 -1.000000 -0.000000
v 1.000000 -0.980785 0.195090
v 1.000000 -0.923880 0.382683
v 1.000000 -0.831470 0.555570
v 1.000000 -0.707107 0.707107
v 1.000000 -0.555570 0.831470
v 1.000000 -0.382683 0.923880
v 1.000000 -0.195090 0.980785
v 1.000000 0.000000 1.000000
v 1.000000 0.195091 0.980785
v 1.000000 0.382684 0.923879
v 1.000000 0.555571 0.831469
v 1.000000 0.707107 0.707106
v 1.000000 0.831470 0.555570
v 1.000000 0.923880 0.382683
v 1.000000 0.980785 0.195089
v 1.000000 1.000000 -0.000001
v 1.000000 0.980785 -0.195091
v 1.000000 0.923879 -0.382684
v 1.000000 0.831469 -0.555571
v 1.000000 0.707106 -0.707108
v 1.000000 0.555569 -0.831470
v 1.000000 0.382682 -0.923880
v 1.000000 0.195089 -0.980786
vn 0.4455 -0.0878 -0.8910
vn 0.4455 -0.2599 -0.8567
vn 0.4455 -0.4220 -0.7896
vn 0.4455 -0.5680 -0.6921
vn 0.4455 -0.6921 -0.5680
vn 0.4455 -0.7896 -0.4220
vn 0.4455 -0.8567 -0.2599
vn 0.4455 -0.8910 -0.0878
vn 0.4455 -0.8910 0.0878
vn 0.4455 -0.8567 0.2599
vn 0.4455 -0.7896 0.4220
vn 0.4455 -0.6921 0.5680
vn 0.4455 -0.5680 0.6921
vn 0.4455 -0.4220 0.7896
vn 0.4455 -0.2599 0.8567
vn 0.4455 -0.0878 0.8910
vn 0.4455 0.0878 0.8910
vn 0.4455 0.2599 0.8567
vn 0.4455 0.4220 0.7896
vn 0.4455 0.5680 0.6921
vn 0.4455 0.6921 0.5680
vn 0.4455 0.7896 0.4220
vn 0.4455 0.8567 0.2599
vn 0.4455 0.8910 0.0878
vn 0.4455 0.8910 -0.0878
vn 0.4455 0.8567 -0.2599
vn 0.4455 0.7896 -0.4220
vn 0.4455 0.6921 -0.5680
vn 0.4455 0.5680 -0.6921
vn 0.4455 0.4220 -0.7896
vn 0.4455 0.2599 -0.8567
vn 0.4455 0.0878 -0.8910
vn -1.0000 -0.0000 0.0000
usemtl mat_x
s off
f 67//67 68//67 69//67
f 69//68 68//68 70//68
f 70//69 68//69 71//69
f 71//70 68//70 72//70
f 72//71 68//71 73//71
f 73//72 68//72 74//72
f 74//73 68//73 75//73
f 75//74 68//74 76//74
f 76//75 68//75 77//75
f 77//76 68//76 78//76
f 78//77 68//77 79//77
f 79//78 68//78 80//78
f 80//79 68//79 81//79
f 81//80 68//80 82//80
f 82//81 68//81 83//81
f 83//82 68//82 84//82
f 84//83 68//83 85//83
f 85//84 68//84 86//84
f 86//85 68//85 87//85
f 87//86 68//86 88//86
f 88//87 68//87 89//87
f 89//88 68//88 90//88
f 90//89 68//89 91//89
f 91//90 68//90 92//90
f 92//91 68//91 93//91
f 93//92 68//92 94//92
f 94//93 68//93 95//93
f 95//94 68//94 96//94
f 96//95 68//95 97//95
f 97//96 68//96 98//96
f 98//97 68//97 99//97
f 99//98 68//98 67//98
f 87//99 91//99 99//99
f 99//99 67//99 69//99
f 69//99 70//99 71//99
f 71//99 72//99 75//99
f 73//99 74//99 75//99
f 75//99 76//99 77//99
f 77//99 78//99 75//99
f 79//99 80//99 81//99
f 81//99 82//99 83//99
f 83//99 84//99 85//99
f 85//99 86//99 83//99
f 87//99 88//99 89//99
f 89//99 90//99 91//99
f 91//99 92//99 95//99
f 93//99 94//99 95//99
f 95//99 96//99 99//99
f 97//99 98//99 99//99
f 99//99 69//99 71//99
f 72//99 73//99 75//99
f 75//99 78//99 79//99
f 79//99 81//99 75//99
f 83//99 86//99 87//99
f 87//99 89//99 91//99
f 92//99 93//99 95//99
f 96//99 97//99 99//99
f 99//99 71//99 75//99
f 75//99 81//99 83//99
f 83//99 87//99 99//99
f 91//99 95//99 99//99
f 99//99 75//99 83//99
